<svg width="24" height="24" viewBox="0 0 24 24" fill="none" xmlns="http://www.w3.org/2000/svg">
<path d="M14.1364 19.5695C13.8539 19.2825 13.7183 18.9357 13.7296 18.5291C13.7419 18.1226 13.8892 17.7758 14.1717 17.4888L18.1621 13.435H2.41252C2.01231 13.435 1.6766 13.2972 1.40539 13.0217C1.13513 12.7471 1 12.4066 1 12C1 11.5934 1.13513 11.2524 1.40539 10.9769C1.6766 10.7023 2.01231 10.565 2.41252 10.565H18.1621L14.1364 6.47534C13.8539 6.18834 13.7127 5.84729 13.7127 5.4522C13.7127 5.05806 13.8539 4.71749 14.1364 4.43049C14.4189 4.1435 14.7546 4 15.1436 4C15.5315 4 15.8668 4.1435 16.1493 4.43049L22.6116 10.9955C22.7528 11.139 22.8531 11.2945 22.9124 11.4619C22.9708 11.6293 23 11.8087 23 12C23 12.1913 22.9708 12.3707 22.9124 12.5381C22.8531 12.7055 22.7528 12.861 22.6116 13.0045L16.114 19.6054C15.855 19.8685 15.5315 20 15.1436 20C14.7546 20 14.4189 19.8565 14.1364 19.5695Z" fill="#DCFF93"/>
</svg>
