<svg width="144" height="144" viewBox="0 0 144 144" fill="none" xmlns="http://www.w3.org/2000/svg">
<g clip-path="url(#clip0_78_11)">
<path d="M144 9V45L72 81L0 45V9C0 6.61305 0.758569 4.32387 2.10883 2.63604C3.45909 0.948213 5.29044 0 7.2 0H136.8C138.71 0 140.541 0.948213 141.891 2.63604C143.241 4.32387 144 6.61305 144 9ZM0 64.386V135C0 137.387 0.758569 139.676 2.10883 141.364C3.45909 143.052 5.29044 144 7.2 144H136.8C138.71 144 140.541 143.052 141.891 141.364C143.241 139.676 144 137.387 144 135V64.386L72 100.386L0 64.386Z" fill="#19171C"/>
</g>
<defs>
<clipPath id="clip0_78_11">
<rect width="144" height="144" fill="white"/>
</clipPath>
</defs>
</svg>
