<svg width="144" height="144" viewBox="0 0 144 144" fill="none" xmlns="http://www.w3.org/2000/svg">
<g clip-path="url(#clip0_78_4)">
<path d="M95.04 72C95.04 76.5569 93.6887 81.0114 91.1571 84.8003C88.6254 88.5892 85.027 91.5423 80.817 93.2862C76.607 95.03 71.9744 95.4863 67.5051 94.5973C63.0358 93.7083 58.9305 91.5139 55.7083 88.2917C52.4861 85.0695 50.2917 80.9642 49.4027 76.4949C48.5137 72.0256 48.97 67.393 50.7138 63.183C52.4577 58.973 55.4108 55.3746 59.1997 52.8429C62.9886 50.3113 67.4431 48.96 72 48.96C78.1084 48.967 83.9647 51.3967 88.284 55.716C92.6034 60.0353 95.033 65.8916 95.04 72ZM144 40.32V103.68C143.988 114.37 139.736 124.618 132.177 132.177C124.618 139.736 114.37 143.988 103.68 144H40.32C29.6302 143.988 19.3817 139.736 11.8228 132.177C4.26398 124.618 0.0121066 114.37 0 103.68V40.32C0.0121066 29.6302 4.26398 19.3817 11.8228 11.8228C19.3817 4.26398 29.6302 0.0121066 40.32 0H103.68C114.37 0.0121066 124.618 4.26398 132.177 11.8228C139.736 19.3817 143.988 29.6302 144 40.32ZM106.56 72C106.56 65.1647 104.533 58.4829 100.736 52.7995C96.9381 47.1161 91.5406 42.6865 85.2255 40.0707C78.9105 37.455 71.9617 36.7706 65.2577 38.1041C58.5537 39.4376 52.3957 42.7291 47.5624 47.5624C42.7291 52.3957 39.4376 58.5537 38.1041 65.2577C36.7706 71.9617 37.455 78.9105 40.0707 85.2255C42.6865 91.5406 47.1161 96.9381 52.7995 100.736C58.4829 104.533 65.1647 106.56 72 106.56C81.1627 106.55 89.9472 102.905 96.4262 96.4262C102.905 89.9472 106.55 81.1627 106.56 72ZM118.08 34.56C118.08 32.8512 117.573 31.1807 116.624 29.7599C115.675 28.339 114.325 27.2316 112.746 26.5777C111.168 25.9237 109.43 25.7526 107.754 26.086C106.078 26.4194 104.539 27.2423 103.331 28.4506C102.122 29.6589 101.299 31.1984 100.966 32.8744C100.633 34.5504 100.804 36.2876 101.458 37.8664C102.112 39.4451 103.219 40.7945 104.64 41.7439C106.061 42.6933 107.731 43.2 109.44 43.2C111.731 43.2 113.929 42.2897 115.549 40.6694C117.17 39.0491 118.08 36.8515 118.08 34.56Z" fill="#19171C"/>
</g>
<defs>
<clipPath id="clip0_78_4">
<rect width="144" height="144" fill="white"/>
</clipPath>
</defs>
</svg>
