<svg width="24" height="24" viewBox="0 0 24 24" fill="none" xmlns="http://www.w3.org/2000/svg">
<g clip-path="url(#clip0_167_89)">
<g clip-path="url(#clip1_167_89)">
<path d="M6.65548 8.4342H2.64045C2.46226 8.4342 2.31787 8.57866 2.31787 8.75678V21.6554C2.31787 21.8336 2.46226 21.9779 2.64045 21.9779H6.65548C6.83368 21.9779 6.97806 21.8336 6.97806 21.6554V8.75678C6.97806 8.57866 6.83368 8.4342 6.65548 8.4342Z" fill="black"/>
<path d="M4.64942 2.02197C3.18852 2.02197 2 3.2092 2 4.66849C2 6.12842 3.18852 7.3161 4.64942 7.3161C6.10916 7.3161 7.29671 6.12836 7.29671 4.66849C7.29677 3.2092 6.10916 2.02197 4.64942 2.02197Z" fill="black"/>
<path d="M16.868 8.11353C15.2554 8.11353 14.0633 8.80675 13.3403 9.59443V8.75669C13.3403 8.57856 13.1959 8.43411 13.0177 8.43411H9.17262C8.99442 8.43411 8.85004 8.57856 8.85004 8.75669V21.6553C8.85004 21.8335 8.99442 21.9778 9.17262 21.9778H13.1789C13.3571 21.9778 13.5015 21.8335 13.5015 21.6553V15.2735C13.5015 13.1229 14.0856 12.2851 15.5847 12.2851C17.2173 12.2851 17.3471 13.6282 17.3471 15.3841V21.6553C17.3471 21.8335 17.4915 21.9779 17.6696 21.9779H21.6774C21.8556 21.9779 22 21.8335 22 21.6553V14.5802C22 11.3825 21.3902 8.11353 16.868 8.11353Z" fill="black"/>
</g>
</g>
<defs>
<clipPath id="clip0_167_89">
<rect width="24" height="24" fill="white"/>
</clipPath>
<clipPath id="clip1_167_89">
<rect width="20" height="20" fill="white" transform="translate(2 2)"/>
</clipPath>
</defs>
</svg>
