<svg width="144" height="144" viewBox="0 0 144 144" fill="none" xmlns="http://www.w3.org/2000/svg">
<g clip-path="url(#clip0_78_6)">
<path fill-rule="evenodd" clip-rule="evenodd" d="M144 144H115.2V93.607C115.2 79.783 109.102 72.0703 98.1648 72.0703C86.2632 72.0703 79.2 80.107 79.2 93.607V144H50.4V50.4H79.2V60.9258C79.2 60.9258 88.2359 45.0703 108.598 45.0703C128.966 45.0703 144 57.5 144 83.2184V144ZM17.5824 35.4305C7.86961 35.4305 0 27.4965 0 17.7117C0 7.93412 7.86961 0 17.5824 0C27.288 0 35.1576 7.93412 35.1576 17.7117C35.1648 27.4965 27.288 35.4305 17.5824 35.4305ZM0 144H36V50.4H0V144Z" fill="#19171C"/>
</g>
<defs>
<clipPath id="clip0_78_6">
<rect width="144" height="144" fill="white"/>
</clipPath>
</defs>
</svg>
