<svg width="25" height="24" viewBox="0 0 25 24" fill="none" xmlns="http://www.w3.org/2000/svg">
<path d="M13.2125 4.74097L8.12806 9.13866H3.316V14.7978H8.05514L13.2125 19.2589V4.74097Z" fill="#19171C"/>
<path fill-rule="evenodd" clip-rule="evenodd" d="M13.5206 4.06711C13.7844 4.18769 13.9535 4.45103 13.9535 4.74101V19.259C13.9535 19.549 13.7843 19.8123 13.5206 19.9329C13.2569 20.0535 12.9471 20.0091 12.7277 19.8194L7.77912 15.5389H3.316C2.90675 15.5389 2.575 15.2071 2.575 14.7979V9.1387C2.575 8.72946 2.90675 8.3977 3.316 8.3977H7.85206L12.7278 4.18056C12.9471 3.99086 13.2569 3.94653 13.5206 4.06711ZM12.4715 6.36165L8.6128 9.69915C8.47816 9.81561 8.30608 9.8797 8.12805 9.8797H4.057V14.0569H8.05514C8.23318 14.0569 8.40526 14.121 8.53991 14.2374L12.4715 17.6383V6.36165Z" fill="#19171C"/>
<path fill-rule="evenodd" clip-rule="evenodd" d="M19.3318 4.23183C19.6508 3.97553 20.1172 4.02639 20.3735 4.34543C22.1198 6.51911 23.0716 9.2238 23.0716 12.012C23.0716 14.8003 22.1198 17.505 20.3735 19.6786C20.1172 19.9977 19.6508 20.0485 19.3318 19.7922C19.0127 19.5359 18.9619 19.0695 19.2182 18.7505C20.753 16.84 21.5896 14.4627 21.5896 12.012C21.5896 9.56136 20.753 7.18411 19.2182 5.27359C18.9619 4.95455 19.0127 4.48814 19.3318 4.23183ZM17.4296 6.13964C17.759 5.89682 18.2229 5.96703 18.4657 6.29645C19.6862 7.95219 20.3446 9.9551 20.3446 12.012C20.3446 14.069 19.6862 16.0719 18.4657 17.7276C18.2229 18.057 17.759 18.1272 17.4296 17.8844C17.1002 17.6416 17.03 17.1777 17.2728 16.8483C18.3055 15.4473 18.8626 13.7525 18.8626 12.012C18.8626 10.2716 18.3055 8.57678 17.2728 7.17577C17.03 6.84635 17.1002 6.38245 17.4296 6.13964ZM15.3582 8.22107C15.7003 7.99651 16.1597 8.09182 16.3843 8.43395C17.082 9.49688 17.4537 10.7406 17.4537 12.012C17.4537 13.2835 17.082 14.5272 16.3843 15.5901C16.1597 15.9322 15.7003 16.0276 15.3582 15.803C15.0161 15.5784 14.9208 15.119 15.1453 14.7769C15.6844 13.9556 15.9717 12.9945 15.9717 12.012C15.9717 11.0296 15.6844 10.0685 15.1453 9.24715C14.9208 8.90502 15.0161 8.44563 15.3582 8.22107Z" fill="#19171C"/>
</svg>
