<svg width="144" height="144" viewBox="0 0 144 144" fill="none" xmlns="http://www.w3.org/2000/svg">
<g clip-path="url(#clip0_78_13)">
<path fill-rule="evenodd" clip-rule="evenodd" d="M113.911 101.672C112.176 106.584 105.278 110.647 99.7776 111.836C96.012 112.635 91.1016 113.267 74.556 106.411C55.9728 98.7118 30.168 71.287 30.168 53.0367C30.168 43.7459 35.5248 32.9273 44.892 32.9273C49.3992 32.9273 50.3928 33.0152 51.876 36.573C53.6112 40.7647 57.8448 51.0921 58.3488 52.1508C60.4296 56.4937 56.232 59.036 53.1864 62.8172C52.2144 63.9551 51.1128 65.1857 52.344 67.3031C53.568 69.3774 57.8016 76.2772 64.0224 81.8156C72.0576 88.9746 78.5736 91.2601 80.9064 92.2324C82.6416 92.9526 84.7152 92.7849 85.9824 91.4309C87.588 89.6952 89.5824 86.8154 91.6128 83.9777C93.0456 81.9467 94.8673 81.6931 96.7753 82.4133C98.0641 82.8598 114.444 90.4668 115.135 91.684C115.646 92.5699 115.647 96.76 113.911 101.672ZM72.0144 0H71.9784C32.2848 0 0 32.2945 0 72C0 87.744 5.07605 102.35 13.7088 114.198L4.73763 140.952L32.4073 132.11C43.7904 139.644 57.3768 144 72.0144 144C111.708 144 144 111.705 144 72C144 32.2945 111.708 0 72.0144 0Z" fill="#19171C"/>
</g>
<defs>
<clipPath id="clip0_78_13">
<rect width="144" height="144" fill="white"/>
</clipPath>
</defs>
</svg>
